<svg xmlns="http://www.w3.org/2000/svg" width="246" height="200" viewBox="0 0 246 200">
    <path fill="#FFF" fill-rule="evenodd" d="M0 196.421l3.51-5.956a13.107 13.107 0 0 0 7.44 2.554c3.352 0 5.1-1.49 5.1-3.51 0-2.76-3.666-3.345-7.811-5.478-4.358-2.125-7.39-4.943-7.39-10.735 0-6.164 5.157-10.101 11.799-10.101 5.956 0 9.088 1.887 10.692 3.031l-3.346 5.956c-1.22-.742-3.988-2.125-6.749-2.125-2.76 0-4.251 1.062-4.251 3.188 0 2.516 2.76 3.189 6.54 4.893 4.68 2.076 8.774 4.466 8.774 10.9 0 6.698-4.893 10.843-13.075 10.843-5.85 0-9.623-2.183-11.214-3.453H0v-.007zM122.535 123.9a52.874 52.874 0 0 1-23.793-5.66c18.834-3.17 32.645-19.448 32.705-38.547V61.975c-.007-10.425 7.467-19.352 17.731-21.178 10.264-1.826 20.358 3.975 23.948 13.763a52.83 52.83 0 0 1 1.799 7.421h17.861a70.547 70.547 0 0 0-1.258-7.094 38.937 38.937 0 0 0-2.27-7.717C178.304 16.25 147.54-3.095 114.928.43 82.312 3.957 56.394 29.428 52.301 61.975h17.862a53.12 53.12 0 0 1 76.125-38.705c-18.83 3.232-32.594 19.556-32.597 38.66v17.756c.007 10.55-7.645 19.548-18.06 21.235-10.416 1.687-20.516-4.435-23.84-14.45a52.767 52.767 0 0 1-1.616-6.785H52.314a70.403 70.403 0 0 0 2.403 11.452l.094.315c9.73 31.942 40.46 52.74 73.73 49.902 33.271-2.838 60.034-28.54 64.214-61.67h-17.868c-4.34 25.53-26.457 44.21-52.352 44.214zm85.484 57.717c0-9.566 6.434-18.39 18.553-18.39 12.227 0 18.497 8.667 18.497 18.126 0 9.566-6.113 18.554-18.29 18.554-12.175 0-18.766-8.774-18.766-18.283l.006-.007zm28.012 0c0-6.163-2.603-11.534-9.251-11.534-6.749 0-9.673 5.157-9.673 11.27 0 6.22 2.868 11.692 9.434 11.692 6.748 0 9.434-5.314 9.434-11.428h.056zm-65.81-.107c0-9.622 7.175-18.283 19.773-18.283 5.478 0 9.037 1.17 11.798 3.145l-3.723 6.377a14.044 14.044 0 0 0-8.239-2.446c-7.019 0-10.528 4.465-10.528 11.006S182.277 193 189.189 193a11.49 11.49 0 0 0 5.421-1.113v-6.113h-6.163v-6.63h14.352v17.435c-2.516 1.49-6.378 3.295-13.554 3.295-12.49 0-19.031-8.773-19.031-18.39l.006.025zm-23.366-17.673h8.24l13.924 35.403h-9.352l-2.076-5.956h-13.497l-2.075 5.956h-8.686l13.522-35.403zm8.346 22.642l-2.604-7.283a62.157 62.157 0 0 1-1.754-6.164h-.107c-.214.63-.799 3.246-1.805 6.164l-2.554 7.283h8.825zm-47.723-22.642h21.157v7.02h-12.648v6.855h11.164v6.566h-11.164v7.918h13.026v7.019h-21.535v-35.378zm-40.465 0h8.666l11.485 16.478c2.283 3.296 3.616 5.793 3.88 6.22h.107c-.05-.37-.214-3.03-.214-5.792v-16.906h7.761v35.403h-7.817L78.3 181.377c-2.182-3.031-3.244-4.993-3.615-5.528h-.107c.05.371.213 2.554.213 4.943v18.447h-7.78v-35.403zm-26.51 0h8.24l13.924 35.403h-9.359l-2.075-5.956H37.736l-2.076 5.956h-8.666l13.503-35.403h.006zm8.346 22.642l-2.604-7.283a62.157 62.157 0 0 1-1.754-6.164h-.114c-.213.63-.798 3.246-1.805 6.164l-2.553 7.283h8.83z"/>
</svg>
